# Blender v2.80 (sub 74) OBJ File: 'bullet low.blend'
# www.blender.org
mtllib bullet low.mtl
o Bullet_low_bullet_low
v -0.014236 -0.160960 -0.305472
v -0.017343 -0.160960 -0.300824
v -0.016445 -0.160960 -0.295012
v -0.011621 -0.160960 -0.291789
v -0.005932 -0.160960 -0.292921
v -0.002709 -0.160960 -0.297744
v -0.004103 -0.160960 -0.303457
v -0.008752 -0.160960 -0.306564
v -0.014089 -0.106044 -0.305129
v -0.017110 -0.106044 -0.300608
v -0.016050 -0.106044 -0.295275
v -0.011528 -0.106044 -0.292254
v -0.006195 -0.106044 -0.293315
v -0.003175 -0.106044 -0.297837
v -0.004235 -0.106044 -0.303169
v -0.008756 -0.106044 -0.306190
v -0.012787 -0.100014 -0.303181
v -0.014811 -0.100014 -0.300151
v -0.014101 -0.100014 -0.296578
v -0.011071 -0.100014 -0.294555
v -0.007498 -0.100014 -0.295265
v -0.005474 -0.100014 -0.298294
v -0.006185 -0.100014 -0.301867
v -0.009214 -0.100014 -0.303892
v -0.012793 -0.091573 -0.303190
v -0.014822 -0.091573 -0.300153
v -0.014109 -0.091573 -0.296572
v -0.011073 -0.091573 -0.294544
v -0.007492 -0.091573 -0.295256
v -0.005463 -0.091573 -0.298292
v -0.006176 -0.091573 -0.301873
v -0.009212 -0.091573 -0.303903
v -0.012489 -0.091566 -0.302735
v -0.014286 -0.091566 -0.300047
v -0.013655 -0.091566 -0.296876
v -0.010967 -0.091566 -0.295080
v -0.007796 -0.091566 -0.295710
v -0.005999 -0.091566 -0.298399
v -0.006630 -0.091566 -0.301569
v -0.009318 -0.091566 -0.303366
v -0.012491 -0.093923 -0.302737
v -0.014289 -0.093923 -0.300047
v -0.013658 -0.093923 -0.296874
v -0.010967 -0.093923 -0.295077
v -0.007794 -0.093923 -0.295707
v -0.005996 -0.093923 -0.298398
v -0.006628 -0.093923 -0.301571
v -0.009318 -0.093923 -0.303369
v -0.012476 -0.091580 -0.302715
v -0.014261 -0.091580 -0.300042
v -0.013634 -0.091580 -0.296890
v -0.010962 -0.091580 -0.295104
v -0.007810 -0.091580 -0.295731
v -0.006024 -0.091580 -0.298403
v -0.006651 -0.091580 -0.301556
v -0.009323 -0.091580 -0.303341
v -0.007355 -0.082302 -0.301084
v -0.008012 -0.073858 -0.298797
v -0.011350 -0.073858 -0.301027
v -0.006854 -0.082302 -0.298568
v -0.012930 -0.082302 -0.297359
v -0.010567 -0.073858 -0.297090
v -0.010797 -0.082302 -0.295933
v -0.008337 -0.073858 -0.300427
v -0.012005 -0.082302 -0.302010
v -0.009719 -0.073858 -0.301351
v -0.009489 -0.082302 -0.302510
v -0.012273 -0.073858 -0.299644
v -0.013431 -0.082302 -0.299876
v -0.011949 -0.073858 -0.298014
v -0.008936 -0.073858 -0.297414
v -0.008280 -0.082302 -0.296434
v -0.010701 -0.069103 -0.300055
v -0.010339 -0.069103 -0.298235
v -0.009308 -0.069103 -0.299778
v -0.011128 -0.069103 -0.299416
v -0.009947 -0.069103 -0.300205
v -0.010978 -0.069103 -0.298662
v -0.009158 -0.069103 -0.299024
v -0.009585 -0.069103 -0.298385
v -0.010143 -0.067478 -0.299220
v -0.012476 -0.102456 -0.302715
v -0.014261 -0.102456 -0.300042
v -0.013634 -0.102456 -0.296890
v -0.010962 -0.102456 -0.295104
v -0.007810 -0.102456 -0.295731
v -0.006024 -0.102456 -0.298403
v -0.006651 -0.102456 -0.301556
v -0.009323 -0.102456 -0.303341
v -0.014854 -0.091573 -0.298286
v -0.005442 -0.100014 -0.300158
v -0.014843 -0.100014 -0.298288
v -0.003127 -0.106044 -0.300618
v -0.016296 -0.160960 -0.303500
v -0.014382 -0.160960 -0.292878
v -0.016090 -0.106044 -0.303196
v -0.014116 -0.106044 -0.293275
v -0.014127 -0.100014 -0.301886
v -0.012805 -0.100014 -0.295238
v -0.014136 -0.091573 -0.301892
v -0.012811 -0.091573 -0.295229
v -0.013679 -0.091566 -0.301585
v -0.012505 -0.091566 -0.295687
v -0.013682 -0.093923 -0.301587
v -0.012507 -0.093923 -0.295684
v -0.017158 -0.106044 -0.297827
v -0.008654 -0.160960 -0.291739
v -0.011615 -0.160960 -0.306628
v -0.008747 -0.106044 -0.292207
v -0.011538 -0.106044 -0.306237
v -0.009208 -0.100014 -0.294523
v -0.011078 -0.100014 -0.303924
v -0.009205 -0.091573 -0.294512
v -0.011080 -0.091573 -0.303935
v -0.009313 -0.091566 -0.295051
v -0.010972 -0.091566 -0.303394
v -0.009312 -0.093923 -0.295048
v -0.010973 -0.093923 -0.303397
v -0.002801 -0.160960 -0.300724
v -0.003797 -0.160960 -0.294983
v -0.006094 -0.160960 -0.305530
v -0.004195 -0.106044 -0.295249
v -0.006169 -0.106044 -0.305169
v -0.006158 -0.100014 -0.296560
v -0.007480 -0.100014 -0.303208
v -0.006149 -0.091573 -0.296554
v -0.007474 -0.091573 -0.303217
v -0.006606 -0.091566 -0.296860
v -0.007780 -0.091566 -0.302759
v -0.006604 -0.093923 -0.296858
v -0.007778 -0.093923 -0.302761
v -0.017500 -0.160960 -0.297801
v -0.005431 -0.091573 -0.300160
v -0.014314 -0.091566 -0.298393
v -0.005971 -0.091566 -0.300052
v -0.014317 -0.093923 -0.298392
v -0.005968 -0.093923 -0.300053
v -0.007342 -0.160960 -0.299742
v -0.012929 -0.160960 -0.298631
v -0.014911 -0.160960 -0.298274
v -0.010135 -0.160960 -0.299186
v -0.005374 -0.160960 -0.300171
vt 0.022036 0.052016
vt 0.713941 0.082549
vt 0.709979 0.116604
vt 0.020471 0.089630
vt 0.015007 0.274821
vt 0.700795 0.279917
vt 0.700897 0.312081
vt 0.014407 0.311259
vt 0.019072 0.127406
vt 0.706600 0.149950
vt 0.704586 0.182824
vt 0.017808 0.165761
vt 0.702588 0.408800
vt 0.787686 0.403763
vt 0.789681 0.433947
vt 0.704553 0.441346
vt 0.798819 0.102621
vt 0.795141 0.131093
vt 0.785748 0.281437
vt 0.785738 0.312081
vt 0.700797 0.344243
vt 0.785749 0.342725
vt 0.786682 0.373293
vt 0.701772 0.376453
vt 0.713984 0.541653
vt 0.798852 0.521534
vt 0.803622 0.548226
vt 0.719959 0.576760
vt 0.702608 0.215360
vt 0.787685 0.220401
vt 0.786681 0.250873
vt 0.701775 0.247708
vt 0.926325 0.113622
vt 0.924438 0.141221
vt 0.920300 0.341105
vt 0.920536 0.369988
vt 0.926336 0.510508
vt 0.928764 0.538263
vt 0.920899 0.225517
vt 0.920532 0.254173
vt 0.791881 0.463862
vt 0.922823 0.455108
vt 0.924445 0.482915
vt 0.795162 0.493066
vt 0.791871 0.160294
vt 0.922821 0.169027
vt 0.921736 0.197130
vt 0.789678 0.190207
vt 0.016716 0.202218
vt 0.015788 0.238424
vt 0.022101 0.573102
vt 0.023877 0.610707
vt 0.920297 0.283049
vt 0.920348 0.312074
vt 0.973027 0.116845
vt 0.934655 0.114428
vt 0.936813 0.087923
vt 0.974672 0.090257
vt 0.969878 0.226048
vt 0.929628 0.225670
vt 0.930360 0.197400
vt 0.970073 0.198288
vt 0.931352 0.454717
vt 0.970651 0.453278
vt 0.971668 0.480422
vt 0.932869 0.482392
vt 0.706580 0.474236
vt 0.709991 0.507596
vt 0.319331 0.895439
vt 0.202932 0.883788
vt 0.206057 0.851724
vt 0.321113 0.855851
vt 0.096447 0.864299
vt 0.100193 0.844019
vt 0.321077 0.816591
vt 0.206399 0.819907
vt 0.203966 0.788139
vt 0.319179 0.777276
vt 0.041315 0.826457
vt 0.040511 0.835591
vt 0.014407 0.827820
vt 0.072536 0.744491
vt 0.084609 0.764160
vt 0.029156 0.801117
vt 0.019845 0.794742
vt 0.100892 0.823852
vt 0.302079 0.654453
vt 0.309687 0.696746
vt 0.190439 0.723912
vt 0.179006 0.691049
vt 0.098583 0.803824
vt 0.198703 0.756260
vt 0.315387 0.737503
vt 0.315769 0.935758
vt 0.196961 0.916097
vt 0.089629 0.884403
vt 0.079514 0.904462
vt 0.022851 0.859473
vt 0.031380 0.852602
vt 0.035717 0.808917
vt 0.039718 0.817449
vt 0.310466 0.977418
vt 0.187967 0.948895
vt 0.093233 0.783998
vt 0.037226 0.844499
vt 0.460748 0.813819
vt 0.459628 0.770573
vt 0.460748 0.856918
vt 0.454289 0.683474
vt 0.457424 0.727140
vt 0.459703 0.899888
vt 0.457807 0.942765
vt 0.638419 0.652269
vt 0.664502 0.678477
vt 0.616622 0.754600
vt 0.585642 0.734791
vt 0.450519 0.639522
vt 0.015003 0.347549
vt 0.019031 0.497886
vt 0.020486 0.535491
vt 0.680002 0.711875
vt 0.680002 0.748981
vt 0.667680 0.786068
vt 0.638783 0.768206
vt 0.603685 0.639586
vt 0.554664 0.714980
vt 0.921735 0.427010
vt 0.930358 0.426736
vt 0.931353 0.169414
vt 0.932868 0.141741
vt 0.929233 0.283056
vt 0.929367 0.254229
vt 0.920900 0.398634
vt 0.929623 0.398476
vt 0.929361 0.369926
vt 0.928750 0.085862
vt 0.929230 0.341100
vt 0.929361 0.312078
vt 0.934661 0.509700
vt 0.970605 0.282842
vt 0.970101 0.254203
vt 0.973023 0.507279
vt 0.970599 0.341318
vt 0.970091 0.369955
vt 0.969867 0.398097
vt 0.970061 0.425846
vt 0.970661 0.170853
vt 0.016686 0.422469
vt 0.017762 0.460272
vt 0.779653 0.739700
vt 0.779648 0.639522
vt 0.808990 0.668858
vt 0.808990 0.710359
vt 0.708817 0.710364
vt 0.708817 0.668862
vt 0.738155 0.639522
vt 0.738159 0.739700
vt 0.455391 0.985593
vt 0.641886 0.814645
vt 0.607056 0.830607
vt 0.532821 0.817384
vt 0.505644 0.790373
vt 0.568741 0.830721
vt 0.533018 0.700568
vt 0.504683 0.681825
vt 0.533183 0.655083
vt 0.566865 0.639522
vt 0.015767 0.384070
vt 0.971676 0.143710
vt 0.803579 0.075921
vt 0.719880 0.047433
vt 0.023763 0.014407
vt 0.974672 0.533859
vt 0.936823 0.536198
vt 0.971256 0.312081
vt 0.489678 0.755540
vt 0.489562 0.717224
vn -0.5556 0.0087 0.8314
vn -0.5459 0.1854 0.8170
vn -0.8207 0.1848 0.5406
vn -0.8383 0.0080 0.5452
vn -0.1951 0.0071 -0.9808
vn -0.1917 0.1845 -0.9640
vn 0.1919 0.1839 -0.9640
vn 0.1951 0.0068 -0.9808
vn -0.9847 0.0064 0.1739
vn -0.9661 0.1841 0.1808
vn -0.9634 0.1832 -0.1958
vn -0.9791 0.0054 -0.2035
vn 0.9618 0.1841 -0.2027
vn 0.9630 0.1896 -0.1916
vn 0.9634 0.1876 0.1916
vn 0.9651 0.1848 0.1854
vn -0.5455 0.1896 0.8164
vn -0.8167 0.1876 0.5457
vn -0.1915 0.1895 -0.9630
vn 0.1917 0.1875 -0.9634
vn 0.5460 0.1840 -0.8173
vn 0.5456 0.1895 -0.8164
vn 0.8167 0.1876 -0.5457
vn 0.8151 0.1832 -0.5496
vn 0.1917 0.1854 0.9638
vn 0.1915 0.1896 0.9630
vn -0.1916 0.1877 0.9634
vn -0.1917 0.1850 0.9639
vn -0.8173 0.1841 -0.5461
vn -0.8164 0.1895 -0.5454
vn -0.5457 0.1875 -0.8167
vn -0.5462 0.1839 -0.8172
vn -0.5555 -0.0013 0.8315
vn -0.8314 -0.0013 0.5556
vn 0.5557 -0.0013 -0.8314
vn 0.8315 -0.0013 -0.5555
vn 0.1951 -0.0013 0.9808
vn -0.1951 -0.0013 0.9808
vn -0.8315 -0.0013 -0.5555
vn -0.5556 -0.0013 -0.8314
vn 0.8164 0.1896 0.5455
vn 0.8315 -0.0013 0.5556
vn 0.5555 -0.0013 0.8315
vn 0.5457 0.1877 0.8167
vn -0.9630 0.1896 0.1916
vn -0.9808 -0.0013 0.1951
vn -0.9808 -0.0013 -0.1951
vn -0.9634 0.1876 -0.1916
vn -0.8310 0.0061 -0.5562
vn -0.5556 0.0068 -0.8314
vn 0.1951 0.0087 0.9807
vn -0.1951 0.0086 0.9808
vn -0.1951 -0.0013 -0.9808
vn 0.1952 -0.0013 -0.9808
vn 0.5555 -0.0014 -0.8315
vn 0.1951 -0.0014 -0.9808
vn 0.8314 -0.0014 0.5556
vn 0.9808 -0.0014 0.1951
vn -0.8315 -0.0014 -0.5555
vn -0.5556 -0.0014 -0.8315
vn -0.0099 0.9999 -0.0066
vn -0.0118 0.9999 -0.0023
vn 0.8171 0.1854 0.5459
vn 0.5460 0.1849 0.8171
vn 0.1949 0.0450 -0.9798
vn 0.1939 0.1142 -0.9744
vn 0.8261 0.1141 -0.5519
vn 0.8306 0.0450 -0.5550
vn 0.1917 0.1866 -0.9635
vn 0.8169 0.1865 -0.5458
vn 0.9798 0.0450 0.1949
vn 0.9744 0.1140 0.1938
vn 0.5520 0.1139 0.8260
vn 0.5550 0.0449 0.8306
vn 0.9097 0.3738 0.1809
vn 0.7712 0.3739 -0.5152
vn -0.0000 1.0000 0.0002
vn -0.9636 0.1865 -0.1916
vn -0.8169 0.1864 0.5458
vn -0.7712 0.3738 0.5153
vn -0.9097 0.3739 -0.1809
vn 0.9636 0.1865 0.1916
vn -0.9798 0.0450 -0.1949
vn -0.8306 0.0449 0.5550
vn -0.8261 0.1140 0.5519
vn -0.9744 0.1141 -0.1938
vn 0.5459 0.1864 0.8169
vn -0.1939 0.1139 0.9744
vn -0.1949 0.0449 0.9798
vn -0.5550 0.0450 -0.8306
vn -0.5519 0.1141 -0.8260
vn -0.5458 0.1866 -0.8169
vn -0.5153 0.3740 -0.7711
vn -0.1810 0.3737 0.9097
vn 0.5153 0.3738 0.7712
vn -0.1917 0.1864 0.9636
vn 0.1809 0.3740 -0.9096
vn 0.9808 -0.0000 0.1951
vn 0.5555 -0.0000 0.8315
vn 0.8315 0.0000 -0.5556
vn -0.8315 0.0000 0.5556
vn -0.1951 0.0000 0.9808
vn 0.1951 0.0000 -0.9808
vn -0.5555 0.0000 -0.8315
vn 0.0000 -1.0000 0.0000
vn -0.9808 0.0000 -0.1951
vn 0.5549 0.0061 -0.8319
vn 0.8314 0.0087 0.5556
vn 0.5556 0.0086 0.8314
vn 0.0099 0.9999 0.0066
vn 0.0118 0.9999 0.0023
vn -0.0117 0.9999 0.0023
vn -0.0100 0.9999 0.0067
vn -0.0023 0.9999 -0.0117
vn -0.0067 0.9999 -0.0100
vn 0.9808 -0.0013 -0.1951
vn 0.9808 -0.0013 0.1951
vn 0.0117 0.9999 -0.0023
vn 0.0100 0.9999 -0.0067
vn -0.0066 0.9999 0.0099
vn -0.0023 0.9999 0.0118
vn 0.0066 0.9999 -0.0099
vn 0.0023 0.9999 -0.0117
vn 0.0023 0.9999 0.0117
vn 0.0067 0.9999 0.0100
vn 0.1952 -0.0014 0.9808
vn 0.5556 -0.0014 0.8315
vn -0.1949 -0.0014 -0.9808
vn -0.5557 -0.0014 0.8314
vn -0.8315 -0.0014 0.5556
vn -0.9808 -0.0014 0.1951
vn -0.9808 -0.0014 -0.1951
vn 0.9808 -0.0014 -0.1951
vn 0.9763 0.0064 -0.2162
vn 0.9831 0.0080 0.1829
vn 0.8266 0.0054 -0.5627
vn 0.8314 -0.0014 -0.5556
vn -0.1951 -0.0014 0.9808
usemtl Low_poly_bullet
s 1
f 95/1/1 97/2/2 11/3/3 3/4/4
f 108/5/5 110/6/6 16/7/7 8/8/8
f 132/9/9 106/10/10 10/11/11 2/12/12
f 93/13/13 91/14/14 22/15/15 14/16/16
f 97/2/2 99/17/17 19/18/18 11/3/3
f 110/6/6 112/19/19 24/20/20 16/7/7
f 123/21/21 125/22/22 23/23/23 15/24/24
f 109/25/25 111/26/26 20/27/27 12/28/28
f 96/29/29 98/30/30 17/31/31 9/32/32
f 99/17/17 101/33/33 27/34/34 19/18/18
f 125/22/22 127/35/35 31/36/36 23/23/23
f 111/26/26 113/37/37 28/38/38 20/27/27
f 98/30/30 100/39/39 25/40/40 17/31/31
f 124/41/41 126/42/42 29/43/43 21/44/44
f 92/45/45 90/46/46 26/47/47 18/48/48
f 94/49/49 96/29/29 9/32/32 1/50/50
f 107/51/51 109/25/25 12/28/28 4/52/52
f 112/19/19 114/53/53 32/54/54 24/20/20
f 105/55/55 103/56/55 36/57/56 44/58/56
f 104/59/57 102/60/57 34/61/58 42/62/58
f 128/63/59 130/64/59 45/65/60 37/66/60
f 100/39/61 26/47/62 34/61/62 102/60/61
f 122/67/63 124/41/41 21/44/44 13/68/64
f 56/69/65 67/70/66 57/71/67 55/72/68
f 57/71/67 67/70/66 66/73/69 64/74/70
f 54/75/71 60/76/72 72/77/73 53/78/74
f 79/79/75 75/80/76 81/81/77
f 68/82/78 70/83/79 78/84/80 76/85/81
f 60/76/72 57/71/67 64/74/70 58/86/82
f 50/87/83 51/88/84 61/89/85 69/90/86
f 71/91/87 72/77/73 60/76/72 58/86/82
f 63/92/88 52/93/89 53/78/74 72/77/73
f 55/72/68 57/71/67 60/76/72 54/75/71
f 67/70/66 56/69/65 49/94/90 65/95/91
f 59/96/92 68/97/78 76/98/81 73/99/93
f 74/100/94 80/101/95 81/81/77
f 76/85/81 78/84/80 81/81/77
f 73/99/93 76/98/81 81/81/77
f 51/88/84 52/93/89 63/92/88 61/89/85
f 49/94/90 50/102/83 69/103/86 65/95/91
f 78/84/80 74/100/94 81/81/77
f 58/86/82 64/74/70 75/80/76 79/79/75
f 61/89/85 63/92/88 62/104/96 70/83/79
f 62/104/96 71/91/87 80/101/95 74/100/94
f 81/81/77 80/101/95 79/79/75
f 80/101/95 71/91/87 58/86/82 79/79/75
f 66/73/69 59/96/92 73/99/93 77/105/97
f 70/83/79 62/104/96 74/100/94 78/84/80
f 63/92/88 72/77/73 71/91/87 62/104/96
f 77/105/97 73/99/93 81/81/77
f 65/95/91 69/103/86 68/97/78 59/96/92
f 64/74/70 66/73/69 77/105/97 75/80/76
f 67/70/66 65/95/91 59/96/92 66/73/69
f 69/90/86 61/89/85 70/83/79 68/82/78
f 87/106/98 54/75/71 53/78/74 86/107/99
f 54/75/71 87/106/98 88/108/100 55/72/68
f 51/88/84 84/109/101 85/110/102 52/93/89
f 56/69/65 89/111/103 82/112/104 49/94/90
f 55/72/68 88/108/100 89/111/103 56/69/65
f 75/80/76 77/105/97 81/81/77
f 108/113/105 8/114/105 138/115/105 141/116/105
f 84/109/101 51/88/84 50/87/83 83/117/106
f 123/21/21 121/118/107 8/8/8 16/7/7
f 120/119/108 122/67/63 13/68/64 5/120/109
f 121/121/105 7/122/105 119/123/105 142/124/105
f 1/125/105 108/113/105 141/116/105 139/126/105
f 106/10/10 92/45/45 18/48/48 10/11/11
f 128/63/110 126/42/110 30/127/111 38/128/111
f 134/129/112 90/46/112 27/34/113 35/130/113
f 116/131/114 114/53/114 25/40/115 33/132/115
f 91/14/14 133/133/116 30/127/117 22/15/15
f 135/134/118 133/133/118 31/36/119 39/135/119
f 103/56/120 101/33/120 28/136/121 36/57/121
f 129/137/122 127/35/122 32/54/123 40/138/123
f 115/139/124 113/37/124 29/43/125 37/66/125
f 118/140/126 116/131/126 33/132/127 41/141/127
f 117/142/128 115/139/128 37/66/60 45/65/60
f 129/137/129 131/143/129 47/144/130 39/135/130
f 135/134/131 137/145/131 46/146/132 38/128/132
f 134/129/133 136/147/133 42/62/58 34/61/58
f 119/148/134 93/13/13 14/16/16 6/149/135
f 86/150/105 89/151/105 88/152/105 87/153/105
f 84/154/105 83/155/105 82/156/105 85/157/105
f 85/157/105 82/156/105 89/151/105 86/150/105
f 52/93/89 85/110/102 86/107/99 53/78/74
f 49/94/90 82/112/104 83/158/106 50/102/83
f 142/124/105 119/123/105 6/159/105 120/160/105
f 139/126/105 141/116/105 107/161/105 4/162/105
f 141/116/105 138/115/105 5/163/105 107/161/105
f 140/164/105 132/165/105 2/166/105 94/167/105
f 35/130/113 27/34/113 101/33/120 103/56/120
f 7/168/136 15/24/24 93/13/13 119/148/134
f 25/40/115 100/39/61 102/60/61 33/132/115
f 41/141/127 33/132/127 102/60/57 104/59/57
f 43/169/137 35/130/137 103/56/55 105/55/55
f 2/12/12 10/11/11 96/29/29 94/49/49
f 18/48/48 26/47/47 100/39/39 98/30/30
f 20/170/27 28/136/38 101/33/33 99/17/17
f 10/11/11 18/48/48 98/30/30 96/29/29
f 12/171/28 20/170/27 99/17/17 97/2/2
f 4/172/52 12/171/28 97/2/2 95/1/1
f 138/115/105 142/124/105 120/160/105 5/163/105
f 44/173/56 36/174/56 115/139/128 117/142/128
f 48/175/138 40/138/138 116/131/126 118/140/126
f 36/174/121 28/38/121 113/37/124 115/139/124
f 40/138/123 32/54/123 114/53/114 116/131/114
f 95/176/105 3/177/105 132/165/105 140/164/105
f 17/31/31 25/40/40 114/53/53 112/19/19
f 5/120/109 13/68/64 109/25/25 107/51/51
f 21/44/44 29/43/43 113/37/37 111/26/26
f 13/68/64 21/44/44 111/26/26 109/25/25
f 9/32/32 17/31/31 112/19/19 110/6/6
f 1/50/50 9/32/32 110/6/6 108/5/5
f 4/162/105 95/176/105 140/164/105 139/126/105
f 40/138/138 48/175/138 131/143/129 129/137/129
f 39/135/119 31/36/119 127/35/122 129/137/122
f 37/66/125 29/43/125 126/42/110 128/63/110
f 8/114/105 121/121/105 142/124/105 138/115/105
f 6/149/135 14/16/16 122/67/63 120/119/108
f 15/24/24 7/168/136 121/118/107 123/21/21
f 14/16/16 22/15/15 124/41/41 122/67/63
f 38/128/132 46/146/132 130/64/59 128/63/59
f 22/15/15 30/127/117 126/42/42 124/41/41
f 24/20/20 32/54/54 127/35/35 125/22/22
f 16/7/7 24/20/20 125/22/22 123/21/21
f 139/126/105 140/164/105 94/167/105 1/125/105
f 35/130/137 43/169/137 136/147/133 134/129/133
f 39/135/130 47/144/130 137/145/131 135/134/131
f 38/128/111 30/127/111 133/133/118 135/134/118
f 23/23/23 31/36/36 133/133/116 91/14/14
f 34/61/62 26/47/62 90/46/112 134/129/112
f 11/3/3 19/18/18 92/45/45 106/10/10
f 19/18/18 27/34/34 90/46/46 92/45/45
f 15/24/24 23/23/23 91/14/14 93/13/13
f 3/4/4 11/3/3 106/10/10 132/9/9
